<!-- <?xml version="1.0" encoding="utf-8"?> -->
<!-- Generator: Adobe Illustrator 16.0.3, SVG Export Plug-In . SVG Version: 6.00 Build 0)  -->
<!-- <!DOCTYPE svg PUBLIC "-//W3C//DTD SVG 1.1//EN" "http://www.w3.org/Graphics/SVG/1.1/DTD/svg11.dtd"> -->
<svg version="1.1" id="Calque_1" xmlns="http://www.w3.org/2000/svg" xmlns:xlink="http://www.w3.org/1999/xlink" x="0px" y="0px"
	 width="500px" height="288px" viewBox="0 105.5 500 288" enable-background="new 0 105.5 500 288" xml:space="preserve">
<title>Fichier 1</title>
<g id="Calque_2">
	<g id="Group_2">
		<g id="Group_1_Image">
			<path fill="#1F9AFF" d="M7.402,113.704H25.87v116.014l50.431-48.381h26.285l-53.509,50.021l58.959,59.888H80.807l-54.937-57.77
				v57.77H7.402V113.704z"/>
			<path fill="#1F9AFF" d="M127.449,113.704h18.473v177.542h-18.473V113.704z"/>
			<path fill="#1F9AFF" d="M181.197,195.429c5.663-5.78,12.593-10.163,20.243-12.8c7.652-2.712,15.711-4.102,23.83-4.111
				c16.413,0,28.25,3.836,35.514,11.507s10.896,19.336,10.9,34.995v47.202c0,3.136,0.157,6.383,0.473,9.743
				c0.314,3.36,0.709,6.454,1.184,9.28h-17.789c-0.655-2.732-1.004-5.53-1.037-8.341c-0.084-3.052-0.123-5.753-0.12-8.103h-0.478
				c-3.698,5.699-8.686,10.447-14.559,13.859c-6.077,3.599-13.378,5.399-21.904,5.402c-5.399,0.039-10.778-0.674-15.981-2.117
				c-4.683-1.269-9.096-3.379-13.023-6.229c-3.682-2.703-6.716-6.192-8.881-10.215c-2.211-4.069-3.315-8.766-3.312-14.088
				c0-9.076,2.367-16.201,7.101-21.374c4.841-5.235,10.905-9.189,17.648-11.507c7.328-2.564,14.964-4.143,22.708-4.692
				c8.128-0.623,15.587-0.934,22.376-0.934h7.106v-3.291c0-7.983-2.409-14.011-7.226-18.084c-4.817-4.073-11.565-6.107-20.243-6.104
				c-6.004,0.001-11.966,0.992-17.648,2.933c-5.67,1.906-10.874,4.987-15.271,9.042L181.197,195.429z M234.711,238.407
				c-11.838,0-21.229,1.644-28.174,4.931c-6.945,3.288-10.419,8.694-10.423,16.221c0,6.886,2.329,11.777,6.986,14.674
				c4.658,2.896,10.459,4.344,17.404,4.344c5.367,0,10.064-0.899,14.092-2.699c3.819-1.652,7.247-4.094,10.059-7.162
				c2.726-3.04,4.818-6.592,6.156-10.449c1.445-4.119,2.245-8.436,2.372-12.8v-7.059H234.711z"/>
			<path fill="#1F9AFF" d="M307.877,262.361c3.322,4.266,7.362,7.922,11.938,10.802c4.339,2.661,9.825,3.991,16.459,3.991
				c2.906-0.006,5.803-0.321,8.643-0.939c2.793-0.576,5.472-1.607,7.931-3.052c2.274-1.317,4.224-3.129,5.705-5.3
				c1.464-2.271,2.205-4.934,2.128-7.635c0-2.97-0.67-5.392-2.009-7.268c-1.428-1.955-3.242-3.597-5.331-4.822
				c-2.371-1.395-4.92-2.462-7.578-3.171c-2.841-0.778-5.761-1.483-8.762-2.112c-5.19-1.09-10.161-2.343-14.912-3.758
				c-4.381-1.238-8.565-3.087-12.432-5.492c-3.505-2.219-6.43-5.245-8.527-8.824c-2.129-3.595-3.192-8.213-3.192-13.854
				c0-5.319,1.185-10.016,3.556-14.092c2.344-4.043,5.582-7.497,9.467-10.096c4.071-2.711,8.546-4.763,13.257-6.078
				c4.928-1.417,10.03-2.13,15.156-2.118c7.556-0.079,15.034,1.517,21.899,4.671c6.713,3.135,11.962,8.224,15.748,15.266
				l-15.39,10.101c-2.319-3.865-5.521-7.126-9.344-9.514c-3.872-2.422-8.567-3.633-14.087-3.633
				c-2.594,0.01-5.178,0.325-7.697,0.939c-2.462,0.569-4.819,1.52-6.986,2.818c-2.02,1.225-3.756,2.865-5.092,4.812
				c-1.343,1.972-2.044,4.311-2.009,6.696c-0.052,2.212,0.753,4.358,2.247,5.99c1.758,1.826,3.847,3.3,6.156,4.345
				c2.896,1.359,5.909,2.458,9,3.286c3.471,0.958,6.987,1.741,10.537,2.346c4.732,0.895,9.398,2.109,13.968,3.633
				c4.164,1.356,8.082,3.377,11.601,5.985c3.298,2.484,5.975,5.7,7.817,9.395c1.893,3.758,2.839,8.378,2.839,13.858
				c0,6.26-1.263,11.582-3.789,15.967c-2.456,4.311-5.904,7.975-10.06,10.688c-4.352,2.809-9.161,4.834-14.211,5.984
				c-5.313,1.259-10.756,1.892-16.216,1.885c-9.471,0-17.641-1.451-24.51-4.35c-6.869-2.9-13.064-8.264-18.587-16.092
				L307.877,262.361z"/>
			<path fill="#1F9AFF" d="M408.75,262.361c3.322,4.267,7.361,7.922,11.938,10.802c4.339,2.661,9.825,3.991,16.459,3.991
				c2.906-0.006,5.803-0.321,8.643-0.939c2.793-0.576,5.472-1.607,7.931-3.052c2.274-1.313,4.226-3.118,5.71-5.284
				c1.468-2.271,2.212-4.934,2.134-7.635c0-2.97-0.672-5.392-2.015-7.268c-1.429-1.963-3.247-3.609-5.341-4.837
				c-2.369-1.394-4.917-2.461-7.573-3.171c-2.844-0.778-5.765-1.483-8.762-2.112c-5.211-1.09-10.184-2.343-14.917-3.758
				c-4.392-1.244-8.585-3.102-12.458-5.518c-3.504-2.219-6.426-5.245-8.522-8.824c-2.132-3.599-3.197-8.217-3.197-13.854
				c0-5.319,1.184-10.016,3.55-14.092c2.345-4.045,5.585-7.499,9.474-10.096c4.087-2.707,8.577-4.75,13.303-6.052
				c4.928-1.417,10.03-2.129,15.156-2.118c7.557-0.079,15.037,1.516,21.904,4.671c6.706,3.135,11.954,8.224,15.743,15.266
				l-15.432,10.101c-2.318-3.865-5.521-7.126-9.343-9.514c-3.865-2.422-8.562-3.633-14.087-3.633
				c-2.595,0.01-5.178,0.325-7.698,0.939c-2.461,0.569-4.818,1.52-6.986,2.818c-2.019,1.224-3.752,2.864-5.087,4.812
				c-1.346,1.971-2.05,4.31-2.014,6.696c-0.052,2.212,0.754,4.358,2.247,5.99c1.76,1.824,3.849,3.299,6.156,4.345
				c2.897,1.358,5.909,2.458,9.001,3.286c3.471,0.958,6.987,1.741,10.536,2.346c4.732,0.895,9.399,2.108,13.968,3.633
				c4.168,1.357,8.09,3.38,11.611,5.99c3.286,2.489,5.951,5.704,7.786,9.395c1.896,3.758,2.845,8.377,2.845,13.859
				c0,6.26-1.264,11.582-3.79,15.966c-2.459,4.311-5.908,7.974-10.064,10.688c-4.35,2.81-9.157,4.835-14.206,5.985
				c-5.314,1.258-10.759,1.891-16.221,1.883c-9.471,0-17.641-1.449-24.51-4.35c-6.868-2.899-13.064-8.263-18.587-16.09
				L408.75,262.361z"/>
			<path fill="#1F9AFF" d="M484.277,170.229h-4.411v12.027h-1.594v-12.027h-4.428v-1.505h10.433V170.229z"/>
			<path fill="#1F9AFF" d="M486.167,168.724h2.367l4.567,10.61l0,0l4.589-10.61H500v13.496h-1.588v-11.3h-0.037l-4.812,11.336h-0.98
				l-4.807-11.336h-0.036v11.336h-1.589L486.167,168.724z"/>
			<path fill="#1F9AFF" d="M205.805,386.296c-1.29-0.003-2.333-1.052-2.33-2.342c0.001-0.46,0.138-0.909,0.394-1.292l43.741-64.881
				H2.336c-1.29,0-2.336-1.047-2.336-2.336c0-1.291,1.046-2.336,2.336-2.336h249.665c1.29,0.004,2.333,1.052,2.329,2.342
				c0,0.46-0.138,0.909-0.393,1.291l-39.179,58.135l87.809-61.337c0.393-0.274,0.86-0.421,1.339-0.421h184.265
				c1.29,0,2.336,1.047,2.336,2.336c0,1.291-1.046,2.336-2.336,2.336H304.644l-97.5,68.079
				C206.753,386.147,206.285,386.297,205.805,386.296z"/>
			<path fill="#1F9AFF" d="M296.422,377.145v-29.907c-0.023-1.735,0.363-3.452,1.131-5.009c0.674-1.389,1.549-2.671,2.596-3.805
				c1.183-1.205,2.626-2.121,4.22-2.679c1.801-0.649,3.702-0.974,5.616-0.955h5.601v3.805h-5.227
				c-1.193-0.011-2.382,0.149-3.529,0.478c-1.091,0.326-2.089,0.902-2.917,1.682c-1.291,0.962-2.287,2.266-2.876,3.764
				c-0.542,1.539-0.808,3.163-0.784,4.796v27.92L296.422,377.145z"/>
			<path fill="#1F9AFF" d="M358.381,371.353c-4.044,4.117-9.599,6.397-15.369,6.312c-5.784,0.137-11.366-2.131-15.416-6.266
				c-4.18-3.966-6.515-9.498-6.441-15.26c0-5.99,2.192-11.132,6.577-15.426c4.384-4.295,9.564-6.383,15.54-6.266
				c11.873,0.184,21.427,9.816,21.51,21.691C364.863,361.881,362.544,367.396,358.381,371.353z M325.333,356.056v0.26
				c-0.043,4.745,1.877,9.296,5.305,12.577c6.972,6.766,18.108,6.598,24.874-0.373c6.695-6.9,6.612-17.896-0.188-24.692
				c-6.982-6.85-18.195-6.742-25.045,0.24c-3.127,3.187-4.934,7.438-5.061,11.9L325.333,356.056z"/>
			<path fill="#1F9AFF" d="M408.454,371.353c-4.044,4.117-9.599,6.397-15.369,6.312c-5.784,0.137-11.366-2.131-15.416-6.266
				c-4.182-3.965-6.518-9.497-6.441-15.26c0-5.99,2.19-11.132,6.571-15.426c4.381-4.295,9.563-6.383,15.546-6.266
				c11.873,0.184,21.427,9.816,21.51,21.691C414.937,361.881,412.617,367.396,408.454,371.353z M375.406,356.056v0.26
				c-0.04,4.745,1.882,9.296,5.31,12.577c6.922,6.818,18.061,6.734,24.879-0.188s6.734-18.06-0.188-24.878
				c-6.976-6.853-18.186-6.753-25.037,0.224c-3.134,3.189-4.944,7.447-5.067,11.917L375.406,356.056z"/>
			<path fill="#1F9AFF" d="M426.175,377.384h-4.354v-26.991c-0.035-3.935,1.34-7.752,3.877-10.76
				c2.418-3.059,6.073-4.879,9.971-4.967h0.437c2.663-0.034,5.283,0.668,7.573,2.029c2.12,1.214,3.89,2.955,5.139,5.055
				c1.174-2.152,2.864-3.979,4.92-5.314c2.195-1.475,4.801-2.217,7.443-2.117c3.668,0.053,7.184,1.471,9.862,3.976
				c2.797,2.362,4.394,5.849,4.354,9.509v29.389h-4.095v-26.498c0.017-2.914-0.892-5.758-2.596-8.123
				c-1.606-2.359-4.247-3.806-7.101-3.887h-0.607c-2.809-0.117-5.516,1.061-7.345,3.197c-1.944,2.189-2.917,5.1-2.917,8.73v26.622
				h-4.007V349.92c0.034-2.916-1.058-5.734-3.047-7.868c-1.875-2.176-4.618-3.409-7.49-3.368h-0.348
				c-2.877,0.038-5.556,1.473-7.184,3.846c-1.743,2.363-2.675,5.228-2.657,8.164L426.175,377.384z"/>
		</g>
	</g>
</g>
</svg>
